<svg width="29" height="17" viewBox="0 0 29 17" fill="none" xmlns="http://www.w3.org/2000/svg">
<g clip-path="url(#clip0_224_61)">
<path d="M17.8308 2.61475H11.2197V14.4951H17.8308V2.61475Z" fill="#FF5F00"/>
<path d="M11.6395 8.55554C11.6385 7.41138 11.8978 6.28198 12.3977 5.25283C12.8977 4.22369 13.6253 3.32178 14.5253 2.61538C13.4107 1.73928 12.0721 1.19445 10.6625 1.04315C9.2529 0.891858 7.82917 1.1402 6.55404 1.75981C5.27891 2.37942 4.20382 3.34529 3.45167 4.54702C2.69952 5.74874 2.30066 7.13784 2.30066 8.55554C2.30066 9.97324 2.69952 11.3623 3.45167 12.5641C4.20382 13.7658 5.27891 14.7317 6.55404 15.3513C7.82917 15.9709 9.2529 16.2192 10.6625 16.0679C12.0721 15.9166 13.4107 15.3718 14.5253 14.4957C13.6253 13.7893 12.8977 12.8874 12.3977 11.8582C11.8978 10.8291 11.6385 9.6997 11.6395 8.55554V8.55554Z" fill="#EB001B"/>
<path d="M26.7496 8.55554C26.7497 9.97322 26.3508 11.3623 25.5987 12.564C24.8466 13.7658 23.7716 14.7316 22.4965 15.3513C21.2214 15.9709 19.7976 16.2192 18.3881 16.0679C16.9785 15.9166 15.6399 15.3718 14.5253 14.4957C15.4246 13.7886 16.1516 12.8865 16.6515 11.8576C17.1513 10.8286 17.4111 9.69952 17.4111 8.55554C17.4111 7.41156 17.1513 6.28251 16.6515 5.25353C16.1516 4.22454 15.4246 3.32249 14.5253 2.61538C15.6399 1.73928 16.9785 1.19444 18.3881 1.04315C19.7976 0.891858 21.2214 1.14021 22.4965 1.75983C23.7716 2.37944 24.8466 3.34531 25.5987 4.54704C26.3508 5.74877 26.7497 7.13786 26.7496 8.55554V8.55554Z" fill="#F79E1B"/>
</g>
<defs>
<clipPath id="clip0_224_61">
<rect width="28.3333" height="17" fill="white" transform="translate(0.329346)"/>
</clipPath>
</defs>
</svg>
