<svg width="85" height="18" viewBox="0 0 85 18" fill="none" xmlns="http://www.w3.org/2000/svg">
<path fill-rule="evenodd" clip-rule="evenodd" d="M71.673 14.0551L71.4794 13.8891C71.0091 13.488 70.9262 12.7549 71.3549 12.2847L76.3897 6.5308C76.7908 6.06053 77.5239 5.97754 77.9941 6.40632L78.1878 6.57229C78.658 6.9734 78.741 7.70646 78.3122 8.17674L73.2776 13.9306C72.8765 14.4009 72.171 14.4562 71.673 14.0551Z" fill="url(#paint0_linear_224_69)"/>
<path opacity="0.4" fill-rule="evenodd" clip-rule="evenodd" d="M75.7118 7.52667L75.615 7.41602L74.8405 8.30122L74.9234 8.39804C76.2512 9.72585 75.6842 11.0675 75.3799 11.5378L75.4905 11.4133C75.6703 11.2058 75.947 10.8877 76.2374 10.5419C76.5417 10.0163 76.9706 8.77149 75.7118 7.52667Z" fill="url(#paint1_linear_224_69)"/>
<path opacity="0.4" fill-rule="evenodd" clip-rule="evenodd" d="M77.3717 9.25562L77.5792 9.02049C77.593 8.99283 77.6207 8.96516 77.6345 8.9375C77.4132 9.18646 77.1781 9.44926 76.9568 9.71205C77.1228 9.53225 77.2611 9.3801 77.3717 9.25562Z" fill="url(#paint2_radial_224_69)"/>
<path fill-rule="evenodd" clip-rule="evenodd" d="M78.3399 6.71045L73.3053 0.956581C72.9042 0.486313 72.1711 0.403325 71.7009 0.832099L71.5072 0.998075C71.037 1.39919 70.954 2.13225 71.3828 2.60253L75.629 7.41584L75.7258 7.52649C76.9844 8.78516 76.5557 10.03 76.2375 10.5556C76.4865 10.2651 76.7355 9.97466 76.9706 9.71186C77.1919 9.44906 77.427 9.18627 77.6483 8.93731C77.8696 8.68833 78.0771 8.45319 78.2154 8.30105C78.6995 7.83078 78.7687 7.18071 78.3399 6.71045Z" fill="url(#paint3_linear_224_69)"/>
<path fill-rule="evenodd" clip-rule="evenodd" d="M78.0631 14.0551L77.8694 13.8891C77.3992 13.488 77.3162 12.7549 77.7449 12.2847L82.7797 6.5308C83.1808 6.06053 83.9139 5.97754 84.3841 6.40632L84.5778 6.57229C85.048 6.9734 85.131 7.70646 84.7023 8.17674L79.6677 13.9306C79.2664 14.4009 78.561 14.4562 78.0631 14.0551Z" fill="url(#paint4_linear_224_69)"/>
<path opacity="0.4" fill-rule="evenodd" clip-rule="evenodd" d="M82.1573 7.471L82.0604 7.36035L81.2859 8.24557L81.3689 8.34239C82.6967 9.6702 82.1296 11.0119 81.8253 11.4821L81.936 11.3576C82.1158 11.1502 82.3924 10.832 82.6829 10.4862C82.9871 9.96066 83.4159 8.71584 82.1573 7.471Z" fill="url(#paint5_linear_224_69)"/>
<path opacity="0.4" fill-rule="evenodd" clip-rule="evenodd" d="M83.7479 9.25562L83.9554 9.02049C83.9692 8.99283 83.9969 8.96516 84.0107 8.9375C83.7894 9.18646 83.5543 9.44926 83.333 9.71205C83.499 9.53225 83.6511 9.3801 83.7479 9.25562Z" fill="url(#paint6_radial_224_69)"/>
<path fill-rule="evenodd" clip-rule="evenodd" d="M84.7161 6.71045L79.6813 0.956581C79.2802 0.486313 78.5471 0.403325 78.0769 0.832099L77.8832 0.998075C77.413 1.39919 77.33 2.13225 77.7587 2.60253L82.0049 7.41584L82.1018 7.52649C83.3604 8.78516 82.9316 10.03 82.6135 10.5556C82.8625 10.2651 83.1115 9.97466 83.3466 9.71186C83.5679 9.44906 83.803 9.18627 84.0243 8.93731C84.2456 8.68833 84.4533 8.45319 84.5916 8.30105C85.0757 7.83078 85.1448 7.18071 84.7161 6.71045Z" fill="url(#paint7_linear_224_69)"/>
<path fill-rule="evenodd" clip-rule="evenodd" d="M0.967011 13.9996C0.773371 13.806 0.66272 13.5155 0.66272 13.1559V1.77266C0.66272 1.39921 0.773371 1.10875 1.0085 0.873617C1.24364 0.638483 1.5341 0.527832 1.90755 0.527832C2.28099 0.527832 2.61295 0.638483 2.83425 0.873617C3.06939 1.10875 3.18004 1.39921 3.18004 1.77266V12.2707H8.61578C9.39034 12.2707 9.79144 12.6165 9.79144 13.2942C9.79144 13.9719 9.39034 14.3177 8.61578 14.3177H1.83839C1.46494 14.3177 1.17448 14.2071 0.967011 13.9996Z" fill="white"/>
<path fill-rule="evenodd" clip-rule="evenodd" d="M11.7555 14.0823C11.5203 13.8471 11.4097 13.5428 11.4097 13.1556V1.7585C11.4097 1.38505 11.5203 1.09459 11.7555 0.859456C11.9906 0.624323 12.281 0.513672 12.6545 0.513672C13.0279 0.513672 13.3599 0.624323 13.5812 0.859456C13.8163 1.09459 13.927 1.38505 13.927 1.7585V13.1556C13.927 13.529 13.8163 13.8471 13.5812 14.0823C13.3461 14.3174 13.0418 14.4281 12.6545 14.4281C12.2949 14.4281 11.9906 14.3174 11.7555 14.0823Z" fill="white"/>
<path fill-rule="evenodd" clip-rule="evenodd" d="M28.3117 16.904C28.3117 16.6689 28.2287 16.4476 28.0904 16.2125L27.3989 15.1751C26.9977 14.525 26.5137 14.0824 25.9189 13.8888C27.0669 13.377 27.9521 12.5748 28.5607 11.4683C29.1831 10.3756 29.4874 9.03398 29.4874 7.49868C29.4874 6.07406 29.2246 4.82922 28.699 3.77804C28.1734 2.74069 27.4265 1.92463 26.4445 1.34372C25.4763 0.790459 24.3145 0.5 23.0005 0.5C21.6589 0.5 20.5109 0.762797 19.5287 1.34372C18.5605 1.92463 17.7997 2.72686 17.2742 3.77804C16.7625 4.84305 16.4858 6.07406 16.4858 7.49868C16.4858 8.9095 16.7486 10.1543 17.2742 11.2193C17.7997 12.2567 18.5466 13.0727 19.5287 13.6537C20.5109 14.2069 21.6589 14.4974 23.0005 14.4974C23.4708 14.4974 23.8442 14.5804 24.1347 14.7187C24.4251 14.857 24.6603 15.0783 24.8401 15.3826L25.9742 17.2636C26.1125 17.4712 26.2923 17.6372 26.486 17.7478C26.6935 17.8585 26.9148 17.9138 27.1499 17.9138C27.4542 17.9138 27.7308 17.8032 27.9659 17.6233C28.2011 17.4435 28.3117 17.1945 28.3117 16.904ZM26.9839 7.47104C26.9839 9.07547 26.6243 10.3203 25.9189 11.1917C25.2135 12.0631 24.2315 12.4918 22.9728 12.4918C21.7142 12.4918 20.7183 12.0631 20.0129 11.1917C19.3075 10.3203 18.9479 9.10313 18.9479 7.47104C18.9479 5.83893 19.3075 4.62177 20.0129 3.7504C20.7183 2.89284 21.7003 2.46407 22.9728 2.46407C24.2453 2.46407 25.2135 2.879 25.9189 3.7504C26.6243 4.62177 26.9839 5.83893 26.9839 7.47104Z" fill="white"/>
<path fill-rule="evenodd" clip-rule="evenodd" d="M32.1844 13.1558C32.1844 13.543 32.2951 13.8473 32.5302 14.0825C32.7377 14.3176 33.0558 14.4283 33.4293 14.4421C33.8165 14.4421 34.1208 14.3314 34.356 14.0963C34.5911 13.875 34.7017 13.5707 34.7017 13.1696V8.99251H38.1734C39.6395 8.99251 40.7737 8.63289 41.5897 7.886C42.4058 7.15293 42.8207 6.11558 42.8207 4.8016C42.8207 3.48761 42.4058 2.45026 41.5897 1.73102C40.7737 0.984128 39.6395 0.624512 38.1734 0.624512H33.4016C33.0282 0.624512 32.7377 0.735163 32.5164 0.928803C32.2951 1.13627 32.1844 1.42673 32.1844 1.80018V13.1558ZM40.4417 4.82925C40.4417 6.32305 39.5704 7.08377 37.8553 7.08377L34.7017 7.06994V2.57474H37.8553C39.5704 2.57474 40.4417 3.33546 40.4417 4.82925Z" fill="white"/>
<path fill-rule="evenodd" clip-rule="evenodd" d="M55.6979 14.0824C55.9331 13.8611 56.0576 13.6122 56.0576 13.3217C56.0576 13.1419 56.0161 12.9898 55.9607 12.8099L50.5803 1.28839C50.4559 1.02559 50.2761 0.831953 50.0409 0.69364C49.8058 0.569157 49.5568 0.5 49.2802 0.5C49.0036 0.5 48.7546 0.555326 48.5195 0.69364C48.2705 0.831953 48.0907 1.03942 47.9801 1.28839L42.6133 12.8099C42.5442 12.9759 42.5027 13.1557 42.5027 13.3217C42.5027 13.626 42.6133 13.8888 42.8623 14.0824C43.0974 14.2761 43.3879 14.3867 43.6783 14.3867C43.8996 14.3867 44.0933 14.3314 44.2731 14.2207C44.4529 14.1101 44.5912 13.9441 44.7019 13.709L45.8777 11.1087H52.6827L53.8584 13.709C53.9552 13.9303 54.1073 14.1101 54.2871 14.2207C54.4669 14.3314 54.6744 14.3867 54.8681 14.3867C55.1862 14.3867 55.4628 14.2761 55.6979 14.0824ZM51.8528 9.17229H46.7212L49.2802 3.41843L51.8528 9.17229Z" fill="white"/>
<path fill-rule="evenodd" clip-rule="evenodd" d="M65.7395 0.527503C66.03 0.527503 66.2927 0.638154 66.5279 0.873288C66.763 1.10842 66.8737 1.35739 66.8737 1.68934C66.8737 1.93831 66.7768 2.20109 66.5832 2.43624L62.171 7.81665V13.1971C62.171 13.5982 62.0604 13.9025 61.8252 14.1376C61.5901 14.3727 61.2996 14.4696 60.94 14.4696C60.5666 14.4696 60.2485 14.3589 60.0133 14.1376C59.7782 13.9163 59.6675 13.612 59.6675 13.1971V7.81665L55.283 2.42241C55.0894 2.18726 54.9926 1.93831 54.9926 1.67551C54.9926 1.37122 55.1032 1.09459 55.3383 0.859456C55.5735 0.624323 55.8501 0.513672 56.1267 0.513672C56.4587 0.513672 56.7215 0.651986 56.9566 0.942446L60.9262 5.86643L64.882 0.942446C65.1171 0.665817 65.4075 0.527503 65.7395 0.527503Z" fill="white"/>
<defs>
<linearGradient id="paint0_linear_224_69" x1="73.2456" y1="15.851" x2="80.2328" y2="12.4633" gradientUnits="userSpaceOnUse">
<stop stop-color="#1FADC3"/>
<stop offset="0.7072" stop-color="#36B98F"/>
</linearGradient>
<linearGradient id="paint1_linear_224_69" x1="75.6992" y1="10.4098" x2="77.0052" y2="10.2197" gradientUnits="userSpaceOnUse">
<stop stop-color="#123F06" stop-opacity="0.01"/>
<stop offset="1" stop-color="#123F06"/>
</linearGradient>
<radialGradient id="paint2_radial_224_69" cx="0" cy="0" r="1" gradientUnits="userSpaceOnUse" gradientTransform="translate(74.5974 9.9747) scale(3.37237 3.85412)">
<stop offset="0.4185" stop-color="#123F06" stop-opacity="0.01"/>
<stop offset="1" stop-color="#123F06"/>
</radialGradient>
<linearGradient id="paint3_linear_224_69" x1="68.467" y1="8.17719" x2="76.9408" y2="11.1055" gradientUnits="userSpaceOnUse">
<stop stop-color="#9FDB57"/>
<stop offset="1" stop-color="#71CA5E"/>
</linearGradient>
<linearGradient id="paint4_linear_224_69" x1="79.6295" y1="15.8545" x2="86.6167" y2="12.4668" gradientUnits="userSpaceOnUse">
<stop stop-color="#1FADC3"/>
<stop offset="0.7072" stop-color="#36B98F"/>
</linearGradient>
<linearGradient id="paint5_linear_224_69" x1="82.1444" y1="10.3542" x2="83.4505" y2="10.164" gradientUnits="userSpaceOnUse">
<stop stop-color="#123F06" stop-opacity="0.01"/>
<stop offset="1" stop-color="#123F06"/>
</linearGradient>
<radialGradient id="paint6_radial_224_69" cx="0" cy="0" r="1" gradientUnits="userSpaceOnUse" gradientTransform="translate(80.9793 9.9747) scale(3.37237 3.85412)">
<stop offset="0.4185" stop-color="#123F06" stop-opacity="0.01"/>
<stop offset="1" stop-color="#123F06"/>
</radialGradient>
<linearGradient id="paint7_linear_224_69" x1="74.8472" y1="8.17972" x2="83.3209" y2="11.108" gradientUnits="userSpaceOnUse">
<stop stop-color="#9FDB57"/>
<stop offset="1" stop-color="#71CA5E"/>
</linearGradient>
</defs>
</svg>
