<svg width="39" height="15" viewBox="0 0 39 15" fill="none" xmlns="http://www.w3.org/2000/svg">
<g clip-path="url(#clip0_224_59)">
<path d="M14.4117 1.88638L9.70103 13.1431H6.62767L4.30953 4.15973C4.1688 3.6064 4.04642 3.4037 3.6184 3.17058C2.91959 2.79087 1.76558 2.43463 0.750244 2.21353L0.819207 1.88638H5.76638C6.39698 1.88638 6.96387 2.30681 7.10704 3.03413L8.33133 9.54786L11.3571 1.88619H14.4117V1.88638ZM26.4537 9.4679C26.466 6.49689 22.3519 6.33322 22.3801 5.00604C22.389 4.60212 22.7729 4.17268 23.6134 4.06306C24.03 4.00844 25.1778 3.96678 26.4797 4.56684L26.9904 2.17974C26.2908 1.92542 25.3907 1.68066 24.2708 1.68066C21.397 1.68066 19.3746 3.21075 19.3576 5.4017C19.339 7.02225 20.8011 7.92656 21.9027 8.46505C23.0359 9.0165 23.4161 9.37086 23.4118 9.86412C23.4037 10.6192 22.508 10.9526 21.6708 10.9657C20.2095 10.9882 19.3615 10.5697 18.6856 10.2549L18.1586 12.721C18.8379 13.0331 20.0918 13.3055 21.3918 13.3192C24.4462 13.3192 26.4443 11.8081 26.4537 9.4679ZM34.0422 13.1431H36.7312L34.3841 1.88638H31.9021C31.3441 1.88638 30.8733 2.21184 30.6649 2.71223L26.3021 13.1431H29.355L29.961 11.4618H33.6912L34.0422 13.1431ZM30.7982 9.15464L32.3285 4.92815L33.2093 9.15464H30.7982ZM18.5658 1.88638L16.1617 13.1431H13.2543L15.6594 1.88638H18.5658V1.88638Z" fill="white"/>
</g>
<defs>
<clipPath id="clip0_224_59">
<rect width="38" height="15" fill="white" transform="translate(0.329346)"/>
</clipPath>
</defs>
</svg>
