<svg width="64" height="64" viewBox="0 0 64 64" fill="none" xmlns="http://www.w3.org/2000/svg">
<rect width="64" height="64" rx="32" fill="#DCE3FA"/>
<path d="M26.54 40.36C25.244 40.36 24.068 40.016 23.012 39.328C21.956 38.64 21.116 37.64 20.492 36.328C19.884 35 19.58 33.424 19.58 31.6C19.58 29.776 19.884 28.208 20.492 26.896C21.116 25.568 21.956 24.56 23.012 23.872C24.068 23.184 25.244 22.84 26.54 22.84C27.836 22.84 29.012 23.184 30.068 23.872C31.124 24.56 31.956 25.568 32.564 26.896C33.188 28.208 33.5 29.776 33.5 31.6C33.5 33.424 33.188 35 32.564 36.328C31.956 37.64 31.124 38.64 30.068 39.328C29.012 40.016 27.836 40.36 26.54 40.36ZM26.54 39.88C28.38 39.88 29.3 37.12 29.3 31.6C29.3 26.08 28.38 23.32 26.54 23.32C24.7 23.32 23.78 26.08 23.78 31.6C23.78 37.12 24.7 39.88 26.54 39.88ZM36.2581 40V39.64L37.9381 39.16V25.984L35.4181 27.76L34.9381 27.16L39.3061 23.2H41.8981V39.16L43.5781 39.64V40H36.2581Z" fill="#304A9A"/>
</svg>
