<svg width="64" height="64" viewBox="0 0 64 64" fill="none" xmlns="http://www.w3.org/2000/svg">
<rect width="64" height="64" rx="32" fill="#DCE3FA"/>
<path d="M25.04 40.36C23.744 40.36 22.568 40.016 21.512 39.328C20.456 38.64 19.616 37.64 18.992 36.328C18.384 35 18.08 33.424 18.08 31.6C18.08 29.776 18.384 28.208 18.992 26.896C19.616 25.568 20.456 24.56 21.512 23.872C22.568 23.184 23.744 22.84 25.04 22.84C26.336 22.84 27.512 23.184 28.568 23.872C29.624 24.56 30.456 25.568 31.064 26.896C31.688 28.208 32 29.776 32 31.6C32 33.424 31.688 35 31.064 36.328C30.456 37.64 29.624 38.64 28.568 39.328C27.512 40.016 26.336 40.36 25.04 40.36ZM25.04 39.88C26.88 39.88 27.8 37.12 27.8 31.6C27.8 26.08 26.88 23.32 25.04 23.32C23.2 23.32 22.28 26.08 22.28 31.6C22.28 37.12 23.2 39.88 25.04 39.88ZM39.0781 40.36C37.9741 40.36 37.0301 40.208 36.2461 39.904C35.4781 39.6 34.8941 39.208 34.4941 38.728C34.1101 38.248 33.9181 37.752 33.9181 37.24C33.9181 36.696 34.0781 36.264 34.3981 35.944C34.7341 35.608 35.1741 35.44 35.7181 35.44C35.8461 35.44 35.9741 35.456 36.1021 35.488C36.2301 35.504 36.3181 35.512 36.3661 35.512L36.6781 35.56V39.4C36.6941 39.4 36.8621 39.464 37.1821 39.592C37.5981 39.704 38.0701 39.76 38.5981 39.76C39.5581 39.76 40.3181 39.368 40.8781 38.584C41.4381 37.784 41.7181 36.536 41.7181 34.84C41.7181 33.16 41.4301 31.944 40.8541 31.192C40.2781 30.424 39.4461 30.04 38.3581 30.04C37.9421 30.04 37.5501 30.112 37.1821 30.256C36.8141 30.4 36.4221 30.592 36.0061 30.832C35.6701 31.04 35.3341 31.296 34.9981 31.6L34.5181 31.24L35.4781 23.2H42.5581C42.6701 22.336 42.9421 21.616 43.3741 21.04C43.5501 20.768 43.7581 20.528 43.9981 20.32H44.7181V25H36.0061L35.3581 30.52C35.5821 30.36 35.9101 30.184 36.3421 29.992C37.2381 29.624 38.0701 29.44 38.8381 29.44C41.1741 29.44 42.9181 29.92 44.0701 30.88C45.2221 31.824 45.7981 33.144 45.7981 34.84C45.7981 36.568 45.2301 37.92 44.0941 38.896C42.9581 39.872 41.2861 40.36 39.0781 40.36Z" fill="#304A9A"/>
</svg>
