<svg width="64" height="64" viewBox="0 0 64 64" fill="none" xmlns="http://www.w3.org/2000/svg">
<rect width="64" height="64" rx="32" fill="#DCE3FA"/>
<path d="M24.54 40.36C23.244 40.36 22.068 40.016 21.012 39.328C19.956 38.64 19.116 37.64 18.492 36.328C17.884 35 17.58 33.424 17.58 31.6C17.58 29.776 17.884 28.208 18.492 26.896C19.116 25.568 19.956 24.56 21.012 23.872C22.068 23.184 23.244 22.84 24.54 22.84C25.836 22.84 27.012 23.184 28.068 23.872C29.124 24.56 29.956 25.568 30.564 26.896C31.188 28.208 31.5 29.776 31.5 31.6C31.5 33.424 31.188 35 30.564 36.328C29.956 37.64 29.124 38.64 28.068 39.328C27.012 40.016 25.836 40.36 24.54 40.36ZM24.54 39.88C26.38 39.88 27.3 37.12 27.3 31.6C27.3 26.08 26.38 23.32 24.54 23.32C22.7 23.32 21.78 26.08 21.78 31.6C21.78 37.12 22.7 39.88 24.54 39.88ZM38.2181 40V39.64L39.8981 39.16V35.56H33.0581L32.5781 34.84L41.5781 22.96H43.8581V34.48H46.3781V35.56H43.8581V39.16L45.5381 39.64V40H38.2181ZM33.8981 34.48H39.8981V26.56L33.8981 34.48Z" fill="#304A9A"/>
</svg>
