<svg width="64" height="64" viewBox="0 0 64 64" fill="none" xmlns="http://www.w3.org/2000/svg">
<rect width="64" height="64" rx="32" fill="#DCE3FA"/>
<path d="M24.54 40.36C23.244 40.36 22.068 40.016 21.012 39.328C19.956 38.64 19.116 37.64 18.492 36.328C17.884 35 17.58 33.424 17.58 31.6C17.58 29.776 17.884 28.208 18.492 26.896C19.116 25.568 19.956 24.56 21.012 23.872C22.068 23.184 23.244 22.84 24.54 22.84C25.836 22.84 27.012 23.184 28.068 23.872C29.124 24.56 29.956 25.568 30.564 26.896C31.188 28.208 31.5 29.776 31.5 31.6C31.5 33.424 31.188 35 30.564 36.328C29.956 37.64 29.124 38.64 28.068 39.328C27.012 40.016 25.836 40.36 24.54 40.36ZM24.54 39.88C26.38 39.88 27.3 37.12 27.3 31.6C27.3 26.08 26.38 23.32 24.54 23.32C22.7 23.32 21.78 26.08 21.78 31.6C21.78 37.12 22.7 39.88 24.54 39.88ZM38.3381 40.36C37.2341 40.36 36.2901 40.208 35.5061 39.904C34.7381 39.6 34.1541 39.208 33.7541 38.728C33.3701 38.248 33.1781 37.752 33.1781 37.24C33.1781 36.696 33.3381 36.264 33.6581 35.944C33.9941 35.608 34.4341 35.44 34.9781 35.44C35.1061 35.44 35.2341 35.456 35.3621 35.488C35.4901 35.504 35.5781 35.512 35.6261 35.512L35.9381 35.56V39.4C35.9541 39.4 36.1221 39.464 36.4421 39.592C36.8581 39.704 37.3301 39.76 37.8581 39.76C38.9781 39.76 39.8341 39.424 40.4261 38.752C41.0341 38.064 41.3381 37.04 41.3381 35.68C41.3381 34.288 41.0421 33.24 40.4501 32.536C39.8741 31.832 39.0901 31.48 38.0981 31.48H36.8981V30.88H38.0981C38.8181 30.88 39.4181 30.56 39.8981 29.92C40.3781 29.28 40.6181 28.36 40.6181 27.16C40.6181 25.96 40.3701 25.04 39.8741 24.4C39.3781 23.76 38.7461 23.44 37.9781 23.44C37.5621 23.44 37.1621 23.504 36.7781 23.632C36.7301 23.648 36.5701 23.704 36.2981 23.8V27.64L35.9861 27.712C35.7301 27.744 35.5141 27.76 35.3381 27.76C34.7941 27.76 34.3541 27.6 34.0181 27.28C33.6981 26.944 33.5381 26.504 33.5381 25.96C33.5381 25.464 33.7301 24.976 34.1141 24.496C34.4981 24.016 35.0581 23.624 35.7941 23.32C36.5461 23 37.4341 22.84 38.4581 22.84C39.8021 22.84 40.9381 23.04 41.8661 23.44C42.8101 23.824 43.5141 24.344 43.9781 25C44.4581 25.656 44.6981 26.376 44.6981 27.16C44.6981 28.072 44.4661 28.8 44.0021 29.344C43.5381 29.872 42.9301 30.296 42.1781 30.616C41.4421 30.904 40.6021 31.072 39.6581 31.12V31.24C40.7141 31.288 41.6741 31.472 42.5381 31.792C44.4581 32.56 45.4181 33.856 45.4181 35.68C45.4181 37.088 44.8341 38.224 43.6661 39.088C42.5141 39.936 40.7381 40.36 38.3381 40.36Z" fill="#304A9A"/>
</svg>
