<svg width="100" height="100" viewBox="0 0 100 100" fill="none" xmlns="http://www.w3.org/2000/svg">
<circle cx="50" cy="50" r="50" fill="#DCE3FA"/>
<path fill-rule="evenodd" clip-rule="evenodd" d="M49.7553 24C49.7212 24 49.5884 24.1284 49.4602 24.2852C48.8397 25.0444 48.2874 26.1305 48.031 27.096C47.7009 28.3386 47.7008 28.3433 47.9629 35.5567C48.201 42.1073 48.2102 43.0223 48.0551 44.671C47.6904 48.5479 46.6066 51.9759 44.6063 55.5796L43.9716 56.7231L43.1469 56.539C42.6933 56.4378 42.1936 56.2899 42.0364 56.2103C41.6097 55.9941 41.0792 55.461 40.8564 55.0244C40.6739 54.6666 40.659 54.5819 40.659 53.8992C40.659 53.2165 40.6739 53.1318 40.8564 52.7739C41.1032 52.2903 41.6546 51.7658 42.163 51.5313C42.4952 51.3782 42.6435 51.3517 43.1788 51.3504L43.8057 51.3489L43.7681 51.0804C43.7473 50.9327 43.4422 48.3656 43.0899 45.3757C42.7377 42.3858 42.3846 39.5922 42.3054 39.1677C41.9144 37.0723 41.0418 34.9465 39.8262 33.1275C38.6026 31.2965 36.5872 29.3659 34.767 28.2813C34.4753 28.1075 34.1834 27.9457 34.1183 27.9217C34.0058 27.8804 34 28.8048 34 46.7444V65.6105H42.7655L42.8835 66.1642C43.1885 67.596 44.072 69.6569 44.9191 70.9125C45.8168 72.243 46.9959 73.4899 48.2039 74.3865C48.8096 74.836 49.3338 75.3752 49.6001 75.8228C49.7407 76.0591 49.763 76.0591 49.9035 75.8228C50.1714 75.3726 50.6949 74.8356 51.2998 74.3905C52.1172 73.789 53.431 72.483 54.0555 71.6508C55.2528 70.0555 56.0814 68.3255 56.5386 66.4666L56.7489 65.6112L65.5036 65.6105V46.7444C65.5036 28.8046 65.4978 27.8804 65.3853 27.9222C65.1223 28.0199 64.169 28.6284 63.4884 29.1331C60.4683 31.3723 58.2023 34.7968 57.3593 38.3959C57.1206 39.415 57.1024 39.5495 56.4148 45.3757C56.062 48.3656 55.7563 50.9327 55.7356 51.0804L55.6979 51.3489L56.3248 51.3504C56.8602 51.3517 57.0085 51.3782 57.3406 51.5313C57.849 51.7658 58.4004 52.2903 58.6472 52.7739C58.8297 53.1318 58.8446 53.2165 58.8446 53.8992C58.8446 54.5819 58.8297 54.6666 58.6472 55.0244C58.4245 55.461 57.894 55.9941 57.4672 56.2103C57.3101 56.2899 56.8103 56.4379 56.3568 56.5392L55.532 56.7233L54.9331 55.6468C52.6381 51.5217 51.5636 47.7685 51.3394 43.0939C51.3134 42.5511 51.3891 39.7018 51.5398 35.5538C51.7977 28.4571 51.7973 28.3476 51.507 27.2139C51.3386 26.5564 51.0557 25.8695 50.6965 25.2463C50.3823 24.7011 49.8529 24 49.7553 24ZM39.6809 39.6038C39.3019 37.6766 38.5016 35.8072 37.4152 34.3118C37.1915 34.0038 36.925 33.6491 36.8232 33.5236L36.6381 33.2953L36.6366 52.5905H38.1024L38.1884 52.3052C38.5179 51.2121 39.4789 50.0079 40.4808 49.4325C40.8297 49.2322 40.8796 49.1788 40.8543 49.0334C40.8384 48.9411 40.5974 46.9328 40.319 44.5704C40.0407 42.208 39.7535 39.973 39.6809 39.6038ZM62.8671 52.5905V42.9596C62.8671 37.6627 62.8567 33.3288 62.8441 33.3288C62.8314 33.3288 62.6027 33.6183 62.3359 33.972C61.4883 35.0958 60.8194 36.3268 60.3673 37.5951C59.899 38.9088 59.7807 39.6026 59.217 44.3351C58.9203 46.8269 58.6645 48.9411 58.6488 49.0334C58.624 49.1786 58.6744 49.2324 59.0228 49.4325C60.0248 50.0079 60.9857 51.2121 61.3152 52.3052L61.4012 52.5905H62.8671ZM52.3062 56.3702C51.3362 54.5748 50.5578 52.7456 50.0195 50.9965C49.8916 50.5813 49.7716 50.2416 49.7526 50.2418C49.7336 50.242 49.6014 50.6119 49.4589 51.064C48.8724 52.9243 48.1276 54.6697 47.1755 56.4154C46.9113 56.8999 46.706 57.3043 46.7192 57.3141C46.7325 57.3238 46.8955 57.3868 47.0815 57.4541C47.9609 57.7726 48.6226 58.1813 49.294 58.8207L49.7488 59.2538L50.2155 58.8167C50.9145 58.162 51.5489 57.7704 52.4222 57.4541C52.6081 57.3868 52.7708 57.3241 52.7837 57.3147C52.7967 57.3053 52.5817 56.8803 52.3062 56.3702ZM40.9705 58.627C39.6836 58.0328 38.5788 56.7883 38.1884 55.4931L38.1024 55.2079H36.6366V62.9931H42.5182V62.6646C42.5182 62.0935 42.6535 60.9751 42.8253 60.1259C42.975 59.3865 43.0109 59.2175 42.9551 59.1787C42.937 59.1661 42.9095 59.1672 42.8731 59.167C42.6134 59.1657 41.3771 58.8148 40.9705 58.627ZM57.0127 62.9931H62.8671V55.2079H61.4012L61.3152 55.4931C61.1924 55.9003 60.8694 56.5189 60.5352 56.9864C59.7791 58.0443 58.629 58.7524 57.1545 59.0679C56.857 59.1316 56.5897 59.2054 56.5603 59.232C56.5309 59.2586 56.5844 59.6551 56.6792 60.1132C56.774 60.5713 56.8878 61.4067 56.9321 61.9696L57.0127 62.9931ZM48.3981 62.775C48.3904 61.7653 47.6247 60.6326 46.6151 60.1378C46.0032 59.8379 45.667 59.7754 45.5994 59.949C45.503 60.197 45.2998 61.293 45.2591 61.785C45.2363 62.0619 45.2012 62.4469 45.1813 62.6407L45.145 62.9931H48.3997L48.3981 62.775ZM54.2459 61.8243C54.2083 61.3228 54.0068 60.2128 53.907 59.9562C53.8453 59.798 53.6483 59.8106 53.1771 60.0029C52.6813 60.2053 52.3649 60.4131 52.0006 60.7757C51.4958 61.2781 51.1039 62.1352 51.1039 62.7368V62.9931H54.3536L54.3197 62.6743C54.3011 62.499 54.2679 62.1165 54.2459 61.8243ZM48.2552 70.8726L48.3997 71.0004V65.6105H45.482L45.5295 65.8286C45.714 66.676 46.2682 68.0199 46.8099 68.9337C47.1692 69.5397 47.9837 70.6324 48.2552 70.8726ZM52.774 68.7928C53.2997 67.8656 53.7993 66.6317 53.9741 65.8286L54.0216 65.6105H51.1039V71.003L51.28 70.8403C51.5889 70.555 52.4231 69.4116 52.774 68.7928Z" fill="#304A9A"/>
</svg>
