<svg width="100" height="100" viewBox="0 0 100 100" fill="none" xmlns="http://www.w3.org/2000/svg">
<circle cx="50" cy="50" r="50" fill="#DCE3FA"/>
<path d="M36.3333 46.3334C37 46.7334 37.9333 47 39 47C40.0666 47 41 46.7334 41.6666 46.3334" stroke="#304A9A" stroke-width="2.5" stroke-linecap="round" stroke-linejoin="round"/>
<path d="M48.3334 33.4C49.5413 34.9142 50.3648 36.6984 50.7334 38.6C51.1842 38.8184 51.5644 39.1593 51.8305 39.5838C52.0965 40.0082 52.2376 40.499 52.2376 41C52.2376 41.501 52.0965 41.9918 51.8305 42.4162C51.5644 42.8407 51.1842 43.1816 50.7334 43.4C50.1577 46.0846 48.6789 48.4907 46.5436 50.2167C44.4083 51.9427 41.7457 52.8843 39 52.8843C36.2544 52.8843 33.5917 51.9427 31.4564 50.2167C29.3211 48.4907 27.8423 46.0846 27.2667 43.4C26.8158 43.1816 26.4356 42.8407 26.1695 42.4162C25.9035 41.9918 25.7624 41.501 25.7624 41C25.7624 40.499 25.9035 40.0082 26.1695 39.5838C26.4356 39.1593 26.8158 38.8184 27.2667 38.6C27.819 35.894 29.2879 33.4614 31.4254 31.7125C33.5629 29.9636 36.2382 29.0056 39 29C41.6667 29 43.6667 30.4667 43.6667 32.3333C43.6667 34.2 42.4667 35.6667 41 35.6667C39.9334 35.6667 39 35.1333 39 34.3333" stroke="#304A9A" stroke-width="2.5" stroke-linecap="round" stroke-linejoin="round"/>
<path d="M59.3333 65.3334C60 65.7334 60.9333 66 62 66C63.0666 66 64 65.7334 64.6666 65.3334" stroke="#304A9A" stroke-width="2.5" stroke-linecap="round" stroke-linejoin="round"/>
<path d="M71.3334 52.4C72.5413 53.9142 73.3648 55.6984 73.7334 57.6C74.1842 57.8184 74.5644 58.1593 74.8305 58.5838C75.0965 59.0082 75.2376 59.499 75.2376 60C75.2376 60.501 75.0965 60.9918 74.8305 61.4162C74.5644 61.8407 74.1842 62.1816 73.7334 62.4C73.1577 65.0846 71.6789 67.4907 69.5436 69.2167C67.4083 70.9427 64.7457 71.8843 62 71.8843C59.2544 71.8843 56.5917 70.9427 54.4564 69.2167C52.3211 67.4907 50.8423 65.0846 50.2667 62.4C49.8158 62.1816 49.4356 61.8407 49.1695 61.4162C48.9035 60.9918 48.7624 60.501 48.7624 60C48.7624 59.499 48.9035 59.0082 49.1695 58.5838C49.4356 58.1593 49.8158 57.8184 50.2667 57.6C50.819 54.894 52.2879 52.4614 54.4254 50.7125C56.5629 48.9636 59.2382 48.0056 62 48C64.6667 48 66.6667 49.4667 66.6667 51.3333C66.6667 53.2 65.4667 54.6667 64 54.6667C62.9334 54.6667 62 54.1333 62 53.3333" stroke="#304A9A" stroke-width="2.5" stroke-linecap="round" stroke-linejoin="round"/>
</svg>
