<svg width="100" height="100" viewBox="0 0 100 100" fill="none" xmlns="http://www.w3.org/2000/svg">
<circle cx="50" cy="50" r="50" fill="#DCE3FA"/>
<path d="M46 58C47 58.6 48.4 59 50 59C51.6 59 53 58.6 54 58" stroke="#304A9A" stroke-width="3" stroke-linecap="round" stroke-linejoin="round"/>
<path d="M64 38.6C65.8119 40.8713 67.0471 43.5476 67.6 46.4C68.2763 46.7275 68.8466 47.239 69.2457 47.8756C69.6448 48.5123 69.8564 49.2486 69.8564 50C69.8564 50.7514 69.6448 51.4877 69.2457 52.1244C68.8466 52.761 68.2763 53.2725 67.6 53.6C66.7366 57.627 64.5183 61.2361 61.3154 63.8251C58.1124 66.4141 54.1185 67.8264 50 67.8264C45.8815 67.8264 41.8876 66.4141 38.6846 63.8251C35.4817 61.2361 33.2634 57.627 32.4 53.6C31.7237 53.2725 31.1534 52.761 30.7543 52.1244C30.3552 51.4877 30.1436 50.7514 30.1436 50C30.1436 49.2486 30.3552 48.5123 30.7543 47.8756C31.1534 47.239 31.7237 46.7275 32.4 46.4C33.2285 42.341 35.4318 38.692 38.6381 36.0687C41.8443 33.4454 45.8573 32.0084 50 32C54 32 57 34.2 57 37C57 39.8 55.2 42 53 42C51.4 42 50 41.2 50 40" stroke="#304A9A" stroke-width="3" stroke-linecap="round" stroke-linejoin="round"/>
</svg>
