<svg width="100" height="100" viewBox="0 0 100 100" fill="none" xmlns="http://www.w3.org/2000/svg">
<circle cx="50" cy="50" r="50" fill="#DCE3FA"/>
<path d="M66.84 38.16C65.8366 37.1531 64.6444 36.3543 63.3316 35.8092C62.0189 35.2641 60.6114 34.9835 59.19 34.9835C57.7686 34.9835 56.3611 35.2641 55.0483 35.8092C53.7356 36.3543 52.5433 37.1531 51.54 38.16L50 39.72L48.46 38.16C47.4566 37.1531 46.2644 36.3543 44.9516 35.8092C43.6389 35.2641 42.2314 34.9835 40.81 34.9835C39.3886 34.9835 37.9811 35.2641 36.6683 35.8092C35.3556 36.3543 34.1633 37.1531 33.16 38.16C28.92 42.4 28.66 49.56 34 55L50 71L66 55C71.34 49.56 71.08 42.4 66.84 38.16Z" stroke="#304A9A" stroke-width="3" stroke-linecap="round" stroke-linejoin="round"/>
</svg>
