<svg width="100" height="100" viewBox="0 0 100 100" fill="none" xmlns="http://www.w3.org/2000/svg">
<circle cx="50" cy="50" r="50" fill="#DCE3FA"/>
<path d="M51.2267 29.1067C50.5578 28.4355 49.7629 27.9029 48.8878 27.5395C48.0126 27.1761 47.0743 26.989 46.1267 26.989C45.179 26.989 44.2407 27.1761 43.3656 27.5395C42.4904 27.9029 41.6956 28.4355 41.0267 29.1067L40 30.1467L38.9733 29.1067C38.3044 28.4355 37.5096 27.9029 36.6344 27.5395C35.7592 27.1761 34.8209 26.989 33.8733 26.989C32.9257 26.989 31.9874 27.1761 31.1122 27.5395C30.2371 27.9029 29.4422 28.4355 28.7733 29.1067C25.9467 31.9334 25.7733 36.7067 29.3333 40.3334L40 51L50.6667 40.3334C54.2267 36.7067 54.0533 31.9334 51.2267 29.1067Z" stroke="#304A9A" stroke-width="3" stroke-linecap="round" stroke-linejoin="round"/>
<path d="M57.3333 66.3334C58 66.7334 58.9333 67 60 67C61.0667 67 62 66.7334 62.6667 66.3334" stroke="#304A9A" stroke-width="3" stroke-linecap="round" stroke-linejoin="round"/>
<path d="M69.3333 53.4C70.5413 54.9142 71.3647 56.6984 71.7333 58.6C72.1842 58.8184 72.5644 59.1593 72.8305 59.5838C73.0965 60.0082 73.2376 60.499 73.2376 61C73.2376 61.501 73.0965 61.9918 72.8305 62.4162C72.5644 62.8407 72.1842 63.1816 71.7333 63.4C71.1577 66.0846 69.6789 68.4907 67.5436 70.2167C65.4083 71.9427 62.7456 72.8843 60 72.8843C57.2543 72.8843 54.5917 71.9427 52.4564 70.2167C50.3211 68.4907 48.8423 66.0846 48.2667 63.4C47.8158 63.1816 47.4356 62.8407 47.1695 62.4162C46.9035 61.9918 46.7624 61.501 46.7624 61C46.7624 60.499 46.9035 60.0082 47.1695 59.5838C47.4356 59.1593 47.8158 58.8184 48.2667 58.6C48.819 55.894 50.2878 53.4614 52.4254 51.7125C54.5629 49.9636 57.2382 49.0056 60 49C62.6667 49 64.6667 50.4667 64.6667 52.3333C64.6667 54.2 63.4667 55.6667 62 55.6667C60.9333 55.6667 60 55.1333 60 54.3333" stroke="#304A9A" stroke-width="3" stroke-linecap="round" stroke-linejoin="round"/>
</svg>
