<svg width="64" height="64" viewBox="0 0 64 64" fill="none" xmlns="http://www.w3.org/2000/svg">
<rect width="64" height="64" rx="32" fill="#DCE3FA"/>
<path d="M25.04 40.36C23.744 40.36 22.568 40.016 21.512 39.328C20.456 38.64 19.616 37.64 18.992 36.328C18.384 35 18.08 33.424 18.08 31.6C18.08 29.776 18.384 28.208 18.992 26.896C19.616 25.568 20.456 24.56 21.512 23.872C22.568 23.184 23.744 22.84 25.04 22.84C26.336 22.84 27.512 23.184 28.568 23.872C29.624 24.56 30.456 25.568 31.064 26.896C31.688 28.208 32 29.776 32 31.6C32 33.424 31.688 35 31.064 36.328C30.456 37.64 29.624 38.64 28.568 39.328C27.512 40.016 26.336 40.36 25.04 40.36ZM25.04 39.88C26.88 39.88 27.8 37.12 27.8 31.6C27.8 26.08 26.88 23.32 25.04 23.32C23.2 23.32 22.28 26.08 22.28 31.6C22.28 37.12 23.2 39.88 25.04 39.88ZM33.7981 38.92C33.7981 37.976 33.9821 37.12 34.3501 36.352C34.7341 35.568 35.1981 34.888 35.7421 34.312C36.2861 33.736 36.9981 33.056 37.8781 32.272C38.6941 31.552 39.3341 30.952 39.7981 30.472C40.2621 29.976 40.6541 29.424 40.9741 28.816C41.2941 28.192 41.4541 27.52 41.4541 26.8C41.4541 25.744 41.1981 24.92 40.6861 24.328C40.1741 23.736 39.5101 23.44 38.6941 23.44C38.2301 23.44 37.7581 23.504 37.2781 23.632L36.7741 23.8V27.64L36.4621 27.712C36.2061 27.744 35.9901 27.76 35.8141 27.76C35.2701 27.76 34.8301 27.6 34.4941 27.28C34.1741 26.944 34.0141 26.504 34.0141 25.96C34.0141 25.448 34.2061 24.952 34.5901 24.472C34.9901 23.992 35.5741 23.6 36.3421 23.296C37.1261 22.992 38.0701 22.84 39.1741 22.84C41.3341 22.84 42.9341 23.272 43.9741 24.136C45.0141 25 45.5341 26.208 45.5341 27.76C45.5341 28.736 45.2781 29.576 44.7661 30.28C44.2701 30.984 43.6541 31.568 42.9181 32.032C42.1981 32.496 41.2301 33.024 40.0141 33.616C38.9901 34.112 38.1581 34.552 37.5181 34.936C36.8941 35.304 36.3101 35.752 35.7661 36.28C35.2381 36.808 34.8621 37.408 34.6381 38.08H43.5181C43.6301 37.216 43.9021 36.496 44.3341 35.92C44.5101 35.648 44.7181 35.408 44.9581 35.2H45.6781V40H33.7981V38.92Z" fill="#304A9A"/>
</svg>
