<svg width="100" height="100" viewBox="0 0 100 100" fill="none" xmlns="http://www.w3.org/2000/svg">
<circle cx="50" cy="50" r="50" fill="#DCE3FA"/>
<path d="M74.2267 55.1067C73.5578 54.4355 72.7629 53.9029 71.8878 53.5395C71.0126 53.1761 70.0743 52.989 69.1267 52.989C68.179 52.989 67.2407 53.1761 66.3656 53.5395C65.4904 53.9029 64.6956 54.4355 64.0267 55.1067L63 56.1467L61.9733 55.1067C61.3044 54.4355 60.5096 53.9029 59.6344 53.5395C58.7592 53.1761 57.8209 52.989 56.8733 52.989C55.9257 52.989 54.9874 53.1761 54.1122 53.5395C53.2371 53.9029 52.4422 54.4355 51.7733 55.1067C48.9467 57.9334 48.7733 62.7067 52.3333 66.3334L63 77L73.6667 66.3334C77.2267 62.7067 77.0533 57.9334 74.2267 55.1067Z" stroke="#304A9A" stroke-width="3" stroke-linecap="round" stroke-linejoin="round"/>
<path d="M42.3333 41.3334L46.3333 30.6667L50.3333 41.3334C49.1733 42.2 47.7733 42.6667 46.3333 42.6667C44.8933 42.6667 43.4933 42.2 42.3333 41.3334Z" stroke="#304A9A" stroke-width="3" stroke-linecap="round" stroke-linejoin="round"/>
<path d="M23.6667 41.3334L27.6667 30.6667L31.6667 41.3334C30.5067 42.2 29.1067 42.6667 27.6667 42.6667C26.2267 42.6667 24.8267 42.2 23.6667 41.3334Z" stroke="#304A9A" stroke-width="3" stroke-linecap="round" stroke-linejoin="round"/>
<path d="M30.3333 48H43.6666" stroke="#304A9A" stroke-width="3" stroke-linecap="round" stroke-linejoin="round"/>
<path d="M37 24V48" stroke="#304A9A" stroke-width="3" stroke-linecap="round" stroke-linejoin="round"/>
<path d="M25 29.3334H27.6667C30.3333 29.3334 34.3333 28 37 26.6667C39.6667 28 43.6667 29.3334 46.3333 29.3334H49" stroke="#304A9A" stroke-width="3" stroke-linecap="round" stroke-linejoin="round"/>
</svg>
